<svg width="15" height="16" viewBox="0 0 15 16" fill="none" xmlns="http://www.w3.org/2000/svg">
<path d="M5.15625 6.59375H2.34375C2.21943 6.59375 2.1002 6.54436 2.01229 6.45646C1.92439 6.36855 1.875 6.24932 1.875 6.125V3.3125C1.875 3.18818 1.92439 3.06895 2.01229 2.98104C2.1002 2.89314 2.21943 2.84375 2.34375 2.84375C2.46807 2.84375 2.5873 2.89314 2.67521 2.98104C2.76311 3.06895 2.8125 3.18818 2.8125 3.3125V4.70996C3.71895 3.6875 5.30918 2.375 7.5 2.375C10.009 2.375 11.5184 3.85566 11.5816 3.91836C11.6698 4.00616 11.7194 4.12537 11.7196 4.24976C11.7198 4.37415 11.6706 4.49353 11.5828 4.58164C11.495 4.66975 11.3758 4.71938 11.2514 4.7196C11.127 4.71982 11.0076 4.67061 10.9195 4.58281C10.9037 4.56699 9.60469 3.3125 7.5 3.3125C5.44922 3.3125 3.9709 4.75684 3.24844 5.65625H5.15625C5.28057 5.65625 5.3998 5.70564 5.48771 5.79354C5.57561 5.88145 5.625 6.00068 5.625 6.125C5.625 6.24932 5.57561 6.36855 5.48771 6.45646C5.3998 6.54436 5.28057 6.59375 5.15625 6.59375ZM12.6562 9.40625H9.84375C9.71943 9.40625 9.6002 9.45564 9.51229 9.54354C9.42439 9.63145 9.375 9.75068 9.375 9.875C9.375 9.99932 9.42439 10.1185 9.51229 10.2065C9.6002 10.2944 9.71943 10.3438 9.84375 10.3438H11.7516C11.0291 11.2432 9.55078 12.6875 7.5 12.6875C5.39531 12.6875 4.09629 11.433 4.08047 11.4172C3.99236 11.3294 3.87297 11.2802 3.74859 11.2804C3.6242 11.2806 3.50499 11.3302 3.41719 11.4184C3.32939 11.5065 3.28018 11.6259 3.2804 11.7502C3.28062 11.8746 3.33025 11.9938 3.41836 12.0816C3.48164 12.1443 4.99102 13.625 7.5 13.625C9.69082 13.625 11.2811 12.3125 12.1875 11.29V12.6875C12.1875 12.8118 12.2369 12.931 12.3248 13.019C12.4127 13.1069 12.5319 13.1562 12.6562 13.1562C12.7806 13.1562 12.8998 13.1069 12.9877 13.019C13.0756 12.931 13.125 12.8118 13.125 12.6875V9.875C13.125 9.75068 13.0756 9.63145 12.9877 9.54354C12.8998 9.45564 12.7806 9.40625 12.6562 9.40625Z" fill="#666B70"/>
</svg>
