<svg width="15" height="15" viewBox="0 0 15 15" fill="currentColor" xmlns="http://www.w3.org/2000/svg">
    <path
        d="M12.0507 11.3869C12.0942 11.4304 12.1288 11.4821 12.1523 11.539C12.1759 11.5959 12.188 11.6569 12.188 11.7185C12.188 11.7801 12.1759 11.8411 12.1523 11.898C12.1288 11.9549 12.0942 12.0066 12.0507 12.0502C12.0071 12.0937 11.9554 12.1283 11.8985 12.1518C11.8416 12.1754 11.7806 12.1875 11.719 12.1875C11.6574 12.1875 11.5964 12.1754 11.5395 12.1518C11.4826 12.1283 11.4309 12.0937 11.3874 12.0502L7.50026 8.16247L3.61315 12.0502C3.52519 12.1381 3.4059 12.1875 3.28151 12.1875C3.15712 12.1875 3.03783 12.1381 2.94987 12.0502C2.86191 11.9622 2.8125 11.8429 2.8125 11.7185C2.8125 11.5941 2.86191 11.4748 2.94987 11.3869L6.83757 7.49977L2.94987 3.61266C2.86191 3.52471 2.8125 3.40541 2.8125 3.28102C2.8125 3.15663 2.86191 3.03734 2.94987 2.94938C3.03783 2.86143 3.15712 2.81201 3.28151 2.81201C3.4059 2.81201 3.52519 2.86143 3.61315 2.94938L7.50026 6.83708L11.3874 2.94938C11.4753 2.86143 11.5946 2.81201 11.719 2.81201C11.8434 2.81201 11.9627 2.86143 12.0507 2.94938C12.1386 3.03734 12.188 3.15663 12.188 3.28102C12.188 3.40541 12.1386 3.52471 12.0507 3.61266L8.16296 7.49977L12.0507 11.3869Z"
        fill="currentColor" />
</svg>