<svg width="15" height="15" viewBox="0 0 15 15" fill="currentColor" xmlns="http://www.w3.org/2000/svg">
    <path
        d="M13.4569 4.55016L5.9569 12.0502C5.91337 12.0937 5.86167 12.1283 5.80476 12.1519C5.74786 12.1755 5.68686 12.1876 5.62526 12.1876C5.56366 12.1876 5.50266 12.1755 5.44576 12.1519C5.38885 12.1283 5.33715 12.0937 5.29362 12.0502L2.01237 8.76891C1.92441 8.68096 1.875 8.56166 1.875 8.43727C1.875 8.31288 1.92441 8.19359 2.01237 8.10563C2.10033 8.01767 2.21962 7.96826 2.34401 7.96826C2.4684 7.96826 2.58769 8.01767 2.67565 8.10563L5.62526 11.0558L12.7936 3.88688C12.8816 3.79892 13.0009 3.74951 13.1253 3.74951C13.2497 3.74951 13.3689 3.79892 13.4569 3.88688C13.5449 3.97484 13.5943 4.09413 13.5943 4.21852C13.5943 4.34291 13.5449 4.46221 13.4569 4.55016Z"
        fill="currentColor" />
</svg>