<svg xmlns="http://www.w3.org/2000/svg" width="21" height="20" viewBox="0 0 21 20" fill="currentColor">
<path d="M17.375 3.125H11.125V1.875C11.125 1.70924 11.0592 1.55027 10.9419 1.43306C10.8247 1.31585 10.6658 1.25 10.5 1.25C10.3342 1.25 10.1753 1.31585 10.0581 1.43306C9.94085 1.55027 9.875 1.70924 9.875 1.875V3.125H3.625C3.29348 3.125 2.97554 3.2567 2.74112 3.49112C2.5067 3.72554 2.375 4.04348 2.375 4.375V13.75C2.375 14.0815 2.5067 14.3995 2.74112 14.6339C2.97554 14.8683 3.29348 15 3.625 15H6.7L5.01172 17.1094C4.90812 17.2389 4.86021 17.4042 4.87852 17.5691C4.89683 17.7339 4.97987 17.8847 5.10938 17.9883C5.23888 18.0919 5.40423 18.1398 5.56905 18.1215C5.73388 18.1032 5.88468 18.0201 5.98828 17.8906L8.3 15H12.7L15.0117 17.8906C15.063 17.9547 15.1264 18.0081 15.1984 18.0477C15.2703 18.0874 15.3493 18.1124 15.4309 18.1215C15.5126 18.1305 15.5952 18.1235 15.674 18.1006C15.7529 18.0777 15.8265 18.0396 15.8906 17.9883C15.9547 17.937 16.0081 17.8736 16.0477 17.8016C16.0874 17.7297 16.1124 17.6507 16.1215 17.5691C16.1305 17.4874 16.1235 17.4048 16.1006 17.326C16.0777 17.2471 16.0396 17.1735 15.9883 17.1094L14.3 15H17.375C17.7065 15 18.0245 14.8683 18.2589 14.6339C18.4933 14.3995 18.625 14.0815 18.625 13.75V4.375C18.625 4.04348 18.4933 3.72554 18.2589 3.49112C18.0245 3.2567 17.7065 3.125 17.375 3.125ZM17.375 13.75H3.625V4.375H17.375V13.75ZM8.625 9.375V11.25C8.625 11.4158 8.55915 11.5747 8.44194 11.6919C8.32473 11.8092 8.16576 11.875 8 11.875C7.83424 11.875 7.67527 11.8092 7.55806 11.6919C7.44085 11.5747 7.375 11.4158 7.375 11.25V9.375C7.375 9.20924 7.44085 9.05027 7.55806 8.93306C7.67527 8.81585 7.83424 8.75 8 8.75C8.16576 8.75 8.32473 8.81585 8.44194 8.93306C8.55915 9.05027 8.625 9.20924 8.625 9.375ZM11.125 8.125V11.25C11.125 11.4158 11.0592 11.5747 10.9419 11.6919C10.8247 11.8092 10.6658 11.875 10.5 11.875C10.3342 11.875 10.1753 11.8092 10.0581 11.6919C9.94085 11.5747 9.875 11.4158 9.875 11.25V8.125C9.875 7.95924 9.94085 7.80027 10.0581 7.68306C10.1753 7.56585 10.3342 7.5 10.5 7.5C10.6658 7.5 10.8247 7.56585 10.9419 7.68306C11.0592 7.80027 11.125 7.95924 11.125 8.125ZM13.625 6.875V11.25C13.625 11.4158 13.5592 11.5747 13.4419 11.6919C13.3247 11.8092 13.1658 11.875 13 11.875C12.8342 11.875 12.6753 11.8092 12.5581 11.6919C12.4408 11.5747 12.375 11.4158 12.375 11.25V6.875C12.375 6.70924 12.4408 6.55027 12.5581 6.43306C12.6753 6.31585 12.8342 6.25 13 6.25C13.1658 6.25 13.3247 6.31585 13.4419 6.43306C13.5592 6.55027 13.625 6.70924 13.625 6.875Z" fill="currentColor"/>
</svg>