<svg width="51" height="50" viewBox="0 0 51 50" fill="currentColor" xmlns="http://www.w3.org/2000/svg">
<path d="M42.2305 16.082L31.293 5.14453C31.1478 4.99948 30.9754 4.88446 30.7857 4.80604C30.596 4.72762 30.3928 4.68734 30.1875 4.6875H11.4375C10.6087 4.6875 9.81384 5.01674 9.22779 5.60279C8.64174 6.18884 8.3125 6.9837 8.3125 7.8125V42.1875C8.3125 43.0163 8.64174 43.8112 9.22779 44.3972C9.81384 44.9833 10.6087 45.3125 11.4375 45.3125H39.5625C40.3913 45.3125 41.1862 44.9833 41.7722 44.3972C42.3583 43.8112 42.6875 43.0163 42.6875 42.1875V17.1875C42.6877 16.9822 42.6474 16.779 42.569 16.5893C42.4905 16.3996 42.3755 16.2272 42.2305 16.082ZM31.75 10.0215L37.3535 15.625H31.75V10.0215ZM39.5625 42.1875H11.4375V7.8125H28.625V17.1875C28.625 17.6019 28.7896 17.9993 29.0826 18.2924C29.3757 18.5854 29.7731 18.75 30.1875 18.75H39.5625V42.1875ZM31.293 27.0195C31.4381 27.1647 31.5533 27.337 31.6319 27.5267C31.7104 27.7164 31.7509 27.9197 31.7509 28.125C31.7509 28.3303 31.7104 28.5336 31.6319 28.7233C31.5533 28.913 31.4381 29.0853 31.293 29.2305C31.1478 29.3756 30.9755 29.4908 30.7858 29.5694C30.5961 29.6479 30.3928 29.6884 30.1875 29.6884C29.9822 29.6884 29.7789 29.6479 29.5892 29.5694C29.3995 29.4908 29.2272 29.3756 29.082 29.2305L27.0625 27.209V35.9375C27.0625 36.3519 26.8979 36.7493 26.6049 37.0424C26.3118 37.3354 25.9144 37.5 25.5 37.5C25.0856 37.5 24.6882 37.3354 24.3951 37.0424C24.1021 36.7493 23.9375 36.3519 23.9375 35.9375V27.209L21.918 29.2305C21.7728 29.3756 21.6005 29.4908 21.4108 29.5694C21.2211 29.6479 21.0178 29.6884 20.8125 29.6884C20.6072 29.6884 20.4039 29.6479 20.2142 29.5694C20.0245 29.4908 19.8522 29.3756 19.707 29.2305C19.5619 29.0853 19.4467 28.913 19.3681 28.7233C19.2896 28.5336 19.2491 28.3303 19.2491 28.125C19.2491 27.9197 19.2896 27.7164 19.3681 27.5267C19.4467 27.337 19.5619 27.1647 19.707 27.0195L24.3945 22.332C24.5396 22.1868 24.712 22.0715 24.9017 21.9929C25.0913 21.9142 25.2947 21.8738 25.5 21.8738C25.7053 21.8738 25.9087 21.9142 26.0983 21.9929C26.288 22.0715 26.4604 22.1868 26.6055 22.332L31.293 27.0195Z" fill="currentColor"/>
</svg>
