<svg width="15" height="15" viewBox="0 0 15 15" fill="none" xmlns="http://www.w3.org/2000/svg">
<path d="M13.319 4.29898L10.701 1.68042C10.6139 1.59335 10.5106 1.52427 10.3968 1.47715C10.2831 1.43002 10.1611 1.40576 10.038 1.40576C9.91486 1.40576 9.79293 1.43002 9.67918 1.47715C9.56542 1.52427 9.46206 1.59335 9.375 1.68042L2.14981 8.90621C2.06238 8.99295 1.99306 9.0962 1.94588 9.20997C1.8987 9.32373 1.87461 9.44574 1.875 9.5689V12.1875C1.875 12.4361 1.97378 12.6746 2.14959 12.8504C2.32541 13.0262 2.56386 13.125 2.8125 13.125H5.43106C5.55422 13.1253 5.67623 13.1013 5.78999 13.0541C5.90376 13.0069 6.00702 12.9376 6.09376 12.8502L13.319 5.62496C13.406 5.5379 13.4751 5.43454 13.5222 5.32078C13.5694 5.20703 13.5936 5.0851 13.5936 4.96197C13.5936 4.83884 13.5694 4.71691 13.5222 4.60315C13.4751 4.4894 13.406 4.38604 13.319 4.29898ZM3.00645 9.37496L7.96876 4.41265L8.94669 5.39058L3.98438 10.3523L3.00645 9.37496ZM2.8125 10.5064L4.49356 12.1875H2.8125V10.5064ZM5.62501 11.9935L4.64707 11.0156L9.60938 6.05328L10.5873 7.03121L5.62501 11.9935ZM11.25 6.36851L8.63145 3.74996L10.0377 2.34371L12.6563 4.96167L11.25 6.36851Z" fill="black"/>
</svg>
