<svg width="81" height="80" viewBox="0 0 81 80" fill="none" xmlns="http://www.w3.org/2000/svg">
<path d="M72.2685 68.2313L56.6216 52.5875C61.1567 47.1428 63.4181 40.1594 62.9355 33.0898C62.4528 26.0203 59.2632 19.4089 54.0302 14.6312C48.7972 9.85341 41.9236 7.27705 34.8394 7.43805C27.7553 7.59905 21.0059 10.485 15.9953 15.4956C10.9847 20.5061 8.09878 27.2555 7.93778 34.3397C7.77678 41.4239 10.3531 48.2974 15.1309 53.5305C19.9087 58.7635 26.52 61.9531 33.5895 62.4357C40.6591 62.9184 47.6426 60.657 53.0872 56.1219L68.731 71.7688C68.9633 72.001 69.239 72.1853 69.5425 72.311C69.846 72.4367 70.1713 72.5014 70.4997 72.5014C70.8282 72.5014 71.1535 72.4367 71.457 72.311C71.7605 72.1853 72.0362 72.001 72.2685 71.7688C72.5008 71.5365 72.685 71.2607 72.8107 70.9573C72.9364 70.6538 73.0011 70.3285 73.0011 70C73.0011 69.6715 72.9364 69.3463 72.8107 69.0428C72.685 68.7393 72.5008 68.4635 72.2685 68.2313ZM12.9997 35C12.9997 30.5499 14.3193 26.1998 16.7917 22.4997C19.264 18.7996 22.778 15.9157 26.8894 14.2127C31.0007 12.5097 35.5247 12.0642 39.8893 12.9323C44.2538 13.8005 48.263 15.9434 51.4096 19.0901C54.5563 22.2368 56.6992 26.2459 57.5674 30.6105C58.4356 34.9751 57.99 39.4991 56.287 43.6104C54.5841 47.7217 51.7002 51.2357 48.0001 53.7081C44.3 56.1804 39.9498 57.5 35.4997 57.5C29.5344 57.4934 23.8153 55.1207 19.5971 50.9026C15.379 46.6845 13.0064 40.9654 12.9997 35Z" fill="#0F0F10"/>
</svg>
