<svg width="25" height="25" viewBox="0 0 25 25" fill="none" xmlns="http://www.w3.org/2000/svg">
    <g clip-path="url(#clip0_1367_14204)">
        <path
            d="M12.5 13.6719C13.1472 13.6719 13.6719 13.1472 13.6719 12.5C13.6719 11.8528 13.1472 11.3281 12.5 11.3281C11.8528 11.3281 11.3281 11.8528 11.3281 12.5C11.3281 13.1472 11.8528 13.6719 12.5 13.6719Z"
            fill="black" />
        <path
            d="M12.5 7.03125C13.1472 7.03125 13.6719 6.50658 13.6719 5.85938C13.6719 5.21217 13.1472 4.6875 12.5 4.6875C11.8528 4.6875 11.3281 5.21217 11.3281 5.85938C11.3281 6.50658 11.8528 7.03125 12.5 7.03125Z"
            fill="black" />
        <path
            d="M12.5 20.3125C13.1472 20.3125 13.6719 19.7878 13.6719 19.1406C13.6719 18.4934 13.1472 17.9688 12.5 17.9688C11.8528 17.9688 11.3281 18.4934 11.3281 19.1406C11.3281 19.7878 11.8528 20.3125 12.5 20.3125Z"
            fill="black" />
    </g>
    <defs>
        <clipPath id="clip0_1367_14204">
            <rect width="25" height="25" fill="white" />
        </clipPath>
    </defs>
</svg>