<svg width="81" height="80" viewBox="0 0 81 80" fill="none" xmlns="http://www.w3.org/2000/svg">
<path d="M52.2688 31.7688L44.0344 40L52.2688 48.2312C52.501 48.4635 52.6853 48.7393 52.811 49.0428C52.9367 49.3462 53.0014 49.6715 53.0014 50C53.0014 50.3285 52.9367 50.6538 52.811 50.9572C52.6853 51.2607 52.501 51.5365 52.2688 51.7688C52.0365 52.001 51.7607 52.1853 51.4573 52.311C51.1538 52.4367 50.8285 52.5014 50.5 52.5014C50.1715 52.5014 49.8463 52.4367 49.5428 52.311C49.2393 52.1853 48.9635 52.001 48.7313 51.7688L40.5 43.5344L32.2688 51.7688C32.0365 52.001 31.7607 52.1853 31.4573 52.311C31.1538 52.4367 30.8285 52.5014 30.5 52.5014C30.1715 52.5014 29.8463 52.4367 29.5428 52.311C29.2393 52.1853 28.9635 52.001 28.7313 51.7688C28.499 51.5365 28.3147 51.2607 28.189 50.9572C28.0633 50.6538 27.9986 50.3285 27.9986 50C27.9986 49.6715 28.0633 49.3462 28.189 49.0428C28.3147 48.7393 28.499 48.4635 28.7313 48.2312L36.9656 40L28.7313 31.7688C28.2622 31.2997 27.9986 30.6634 27.9986 30C27.9986 29.3366 28.2622 28.7003 28.7313 28.2312C29.2004 27.7621 29.8366 27.4986 30.5 27.4986C31.1634 27.4986 31.7997 27.7621 32.2688 28.2312L40.5 36.4656L48.7313 28.2312C48.9635 27.999 49.2393 27.8147 49.5428 27.689C49.8463 27.5633 50.1715 27.4986 50.5 27.4986C50.8285 27.4986 51.1538 27.5633 51.4573 27.689C51.7607 27.8147 52.0365 27.999 52.2688 28.2312C52.501 28.4635 52.6853 28.7393 52.811 29.0428C52.9367 29.3462 53.0014 29.6715 53.0014 30C53.0014 30.3285 52.9367 30.6538 52.811 30.9572C52.6853 31.2607 52.501 31.5365 52.2688 31.7688ZM73 40C73 46.4279 71.0939 52.7114 67.5228 58.056C63.9516 63.4006 58.8758 67.5662 52.9372 70.0261C46.9986 72.4859 40.464 73.1295 34.1596 71.8755C27.8552 70.6215 22.0643 67.5262 17.519 62.981C12.9738 58.4358 9.87851 52.6448 8.62449 46.3404C7.37047 40.0361 8.01408 33.5014 10.4739 27.5628C12.9338 21.6242 17.0994 16.5484 22.444 12.9772C27.7886 9.40609 34.0721 7.5 40.5 7.5C49.1168 7.5091 57.378 10.9361 63.4709 17.0291C69.5639 23.122 72.9909 31.3833 73 40ZM68 40C68 34.561 66.3872 29.2442 63.3654 24.7218C60.3437 20.1995 56.0488 16.6747 51.0238 14.5933C45.9988 12.5119 40.4695 11.9673 35.135 13.0284C29.8006 14.0895 24.9005 16.7086 21.0546 20.5546C17.2086 24.4005 14.5895 29.3005 13.5284 34.635C12.4673 39.9695 13.0119 45.4988 15.0933 50.5238C17.1747 55.5488 20.6995 59.8437 25.2218 62.8654C29.7442 65.8872 35.061 67.5 40.5 67.5C47.7909 67.4917 54.7809 64.5918 59.9363 59.4363C65.0918 54.2808 67.9917 47.2909 68 40Z" fill="#0F0F10"/>
</svg>
